# xmcd
#
# Track frame offsets: 
#        300
#        23076
#        45804
#        71512
#        95678
#        119959
#        140666
#        165042
#        189275
#        199739
#        228110
#        247623
#        259037
#
# Disc length: 3751 seconds
#
# Revision: 4
# Processed by: cddbd v1.5.2PL0 Copyright (c) Steve Scherf et al.
# Submitted via: ExactAudioCopy v1.0b1
#
DISCID=a10ea30d
DTITLE=Byther Smith - All Night Long
DYEAR=1997
DGENRE=General Blues
TTITLE0=Cried Like A Baby
TTITLE1=I'm your New Lover
TTITLE2=WAlked All Night Long
TTITLE3=Hey Mr Dee Jay
TTITLE4=Look Over Your Shoulder
TTITLE5=Live On This Man's Name
TTITLE6=Something's Wrong With This Picture
TTITLE7=What Did I Do
TTITLE8=Mother you Say You Don't Like the Black Colors
TTITLE9=Daddy's Gone
TTITLE10=Daddy You Got A Son
TTITLE11=Is He White or is He Black
TTITLE12=Thinking Real Hard
EXTD=YEAR: 1998
EXTT0=
EXTT1=
EXTT2=
EXTT3=
EXTT4=
EXTT5=
EXTT6=
EXTT7=
EXTT8=
EXTT9=
EXTT10=
EXTT11=
EXTT12=
PLAYORDER=
